<?xml version="1.0" encoding="utf-8"?>
<!-- Generator: Adobe Illustrator 22.1.0, SVG Export Plug-In . SVG Version: 6.00 Build 0)  -->
<svg version="1.1" xmlns="http://www.w3.org/2000/svg" xmlns:xlink="http://www.w3.org/1999/xlink" x="0px" y="0px"
	 viewBox="0 0 750 500" style="enable-background:new 0 0 750 500;" xml:space="preserve">
<style type="text/css">
	.st0{fill:#F9ECDC;}
	.st1{fill:#B5E1FF;}
	.st2{fill:#FCFBFF;}
	.st3{fill:none;stroke:#B5E1FF;stroke-width:1.5;stroke-linecap:round;stroke-linejoin:round;stroke-miterlimit:10;}
	.st4{fill:#1574DD;}
	.st5{fill:#FFAC00;}
	.st6{fill:none;stroke:#1574DD;stroke-width:1.5;stroke-miterlimit:10;}
	.st7{font-family:'Poppins-Bold';}
	.st8{font-size:17px;}
	.st9{fill:#D2552A;}
	.st10{fill:#7040BF;}
	.st11{fill:#492994;}
	.st12{fill:none;stroke:#492994;stroke-width:1.5;stroke-linecap:round;stroke-linejoin:round;stroke-miterlimit:10;}
	.st13{fill:#00184C;}
	.st14{fill:#FFA189;}
	.st15{fill:#F8756A;}
	.st16{fill:none;stroke:#F8756A;stroke-width:1.5;stroke-linecap:round;stroke-linejoin:round;stroke-miterlimit:10;}
	.st17{fill:none;stroke:#D2552A;stroke-width:1.5;stroke-linecap:round;stroke-linejoin:round;stroke-miterlimit:10;}
	.st18{fill:none;stroke:#00184C;stroke-width:3;stroke-linecap:round;stroke-linejoin:round;stroke-miterlimit:10;}
	.st19{fill:none;stroke:#FCFBFF;stroke-width:1.5;stroke-linecap:round;stroke-linejoin:round;stroke-miterlimit:10;}
	.st20{fill:none;stroke:#00184C;stroke-width:1.5;stroke-linecap:round;stroke-linejoin:round;stroke-miterlimit:10;}
	.st21{fill:none;stroke:#013F81;stroke-width:1.5;stroke-linecap:round;stroke-linejoin:round;stroke-miterlimit:10;}
	.st22{fill:#013F81;}
	.st23{fill:none;stroke:#B5E1FF;stroke-width:3;stroke-linecap:round;stroke-linejoin:round;stroke-miterlimit:10;}
	.st24{font-family:'DIN-Medium';}
	.st25{font-size:33px;}
</style>
<g id="BACKGROUND">
	<rect class="st0" width="750" height="500"/>
</g>
<g id="OBJECTS">
	<g>
		<path class="st1" d="M540.7,303.1H247.9c-5.5,0-10-4.5-10-10V80.4c0-5.5,4.5-10,10-10h292.8c5.5,0,10,4.5,10,10v212.7
			C550.7,298.6,546.2,303.1,540.7,303.1z"/>
		<g>
			<path class="st2" d="M550.7,297.1H257.9c-5.5,0-10-4.5-10-10V74.4c0-5.5,4.5-10,10-10h292.8c5.5,0,10,4.5,10,10v212.7
				C560.7,292.6,556.2,297.1,550.7,297.1z"/>
			<path class="st3" d="M550.7,297.1H257.9c-5.5,0-10-4.5-10-10V74.4c0-5.5,4.5-10,10-10h292.8c5.5,0,10,4.5,10,10v212.7
				C560.7,292.6,556.2,297.1,550.7,297.1z"/>
		</g>
	</g>
	<g>
		<rect x="356" y="163" class="st4" width="32.5" height="54.2"/>
		<rect x="477.8" y="136.8" class="st4" width="32.5" height="80.3"/>
		<rect x="414.8" y="147.4" class="st5" width="32.5" height="69.8"/>
		<line class="st6" x1="345.1" y1="217.2" x2="521.8" y2="217.2"/>
	</g>
	<path class="st5" d="M338.1,116.9c-5.5-11.7-17.4-19.8-31.2-19.8v34.5L338.1,116.9z"/>
	<path class="st3" d="M338.1,116.9c-5.5-11.7-17.4-19.8-31.2-19.8v34.5L338.1,116.9z"/>
	<circle class="st3" cx="306.9" cy="131.6" r="34.5"/>
	<rect x="356" y="228.7" class="st5" width="34.1" height="5.3"/>
	<rect x="356" y="239.2" class="st1" width="54.1" height="5.3"/>
	<rect x="356" y="248" class="st1" width="34.1" height="5.3"/>
	<rect x="439.9" y="228.7" class="st5" width="34.1" height="5.3"/>
	<rect x="439.9" y="239.2" class="st1" width="54.1" height="5.3"/>
	<rect x="439.9" y="248" class="st1" width="34.1" height="5.3"/>
	<rect x="272.4" y="175.2" class="st4" width="19.5" height="5.3"/>
	<rect x="272.4" y="185.7" class="st1" width="31" height="5.3"/>
	<rect x="272.4" y="201.4" class="st4" width="19.5" height="5.3"/>
	<rect x="272.4" y="211.9" class="st1" width="31" height="5.3"/>
	<rect x="272.4" y="227.6" class="st4" width="19.5" height="5.3"/>
	<rect x="272.4" y="238.1" class="st1" width="31" height="5.3"/>
	<text transform="matrix(1 0 0 1 331.027 93.055)" class="st5 st7 st8">Surat Perjalanan Dinas</text>
	<path class="st9" d="M225.4,372.2c0,0-51.8,50.3-129.8,8.8l2.1-12.6l126.1-7.7L225.4,372.2z"/>
	<path class="st10" d="M112.7,333.5L85.9,437.7h124.8c0,0,11.5-68,5.4-104.3H112.7z"/>
	<path class="st11" d="M216.7,338.4c-0.2-1.7-0.4-3.4-0.7-4.9H112.7l-4.9,19L216.7,338.4z"/>
	<polyline class="st12" points="157.2,437.7 172.4,368.7 182,365.7 	"/>
	<path class="st13" d="M122.1,219.2c0,0-11.8-9.8-9-26.8s15.8-19.8,15.8-19.8s-15.3-15.8,2.5-36.3c0,0,5.5-5.3,12.3-6
		c0,0,5.5-25.5,34.5-22.7s20.1,31,11.9,34.7c0,0,4.9,13.3-2.5,19.8v8.8c0,0,19.8,5,22.3,26S190,225.5,190,225.5
		S132.9,230.1,122.1,219.2z"/>
	<path class="st5" d="M145.8,199l-42.2,11.4c-2.6,0.7-4.7,2.5-5.8,4.9c-5.8,12.6-24.2,53.2-27.7,73.9c0,0-7.3,25.3,9,34.8
		c4.4,2.5,9.5,3.3,14.5,2.6l11.2-1.6l-9.3,56c0,0,40.3,5.3,48.3-23l5-24.5h50c0,0-3.5,28.3,26.5,38.8l-8.5-62.3l4.4-24.1l16,14
		c4.8,4.2,10.5,7.4,16.6,8.9c9.9,2.6,23.3,1.8,31.2-15.9c13.8-30.8,21.5-71.3,21.5-71.3L288.4,203l-35.7,52.3l-31.1-42.8
		c-1.3-1.7-3.1-3-5.2-3.5l-41-9.9H145.8z"/>
	<path class="st2" d="M203.7,260.1c-1.6-18-20.3-49.7-28.3-61.1h-29.5c0,0,15.2,83.6,3,134.5h50
		C198.9,333.5,204.8,273.1,203.7,260.1z"/>
	<path class="st1" d="M203.1,282.7c-15.7,5-35,7.6-49.6,8.8c-0.3,14.8-1.6,29.4-4.6,42h50C198.9,333.5,201.7,304.8,203.1,282.7z"/>
	<path class="st14" d="M175.4,199l-0.8-11.2c1.9,0,3.7-0.3,5.5-0.9c13.5-4.5,10-21,8-30c-0.9-4.1-2.1-8.7-4-12.8
		c-10.6,4-21.5-1.7-21.5-1.7c-4,8.5-11.5,9.8-11.5,9.8c0.3,6.4-1.8,10.3-3.2,12.2c0.5,1.7-2,34.6-2,34.6l0,0v0
		c0,0,3.1,19.5,4.5,32.4c4.1,0.3,8.3,0.5,12.7,0.5c10.6,0,20.7-1.1,29.8-3C186.8,216.6,179.6,205,175.4,199z"/>
	<path class="st15" d="M166.2,148.2c0,0,12.3,3.9,18.6-2.6c-0.2-0.5-0.4-1-0.6-1.5c-10.6,4-21.5-1.7-21.5-1.7
		c-4,8.5-11.5,9.8-11.5,9.8c0.1,1,0,2,0,2.9C155.4,155.3,162.8,154.5,166.2,148.2z"/>
	<path class="st14" d="M150,160.9c3,3.3,3.1,8.2,0.2,10.9c-2.9,2.7-7.8,2.2-10.8-1.1c-3-3.3-3.1-8.2-0.2-10.9
		C142.1,157.2,147,157.6,150,160.9z"/>
	<path class="st5" d="M83.9,296c0,0,3.5-15.3,24-17.8s43-0.8,51.8-3.5l1.8,25.5c0,0-36.9,23.3-56.5,24.8L83.9,296z"/>
	<path class="st9" d="M108.5,278c0,0,2.4-6,7-25.5l-0.8,25.1L108.5,278z"/>
	<path class="st15" d="M174.6,187.8c0,0-11.1-0.5-17.3-11.2c0,0,1,13.8,17.8,18.5L174.6,187.8z"/>
	<line class="st16" x1="141.6" y1="162.6" x2="148.9" y2="167.6"/>
	<path class="st17" d="M221.3,285.9c0,0,4-14.7,4.1-25.9c0-7.4-7.3-16.5-9.4-25.3"/>
	<polygon class="st4" points="228.1,307.2 175.9,307.2 185.4,239 237.6,239 	"/>
	<path class="st14" d="M159.8,276.8c0,0,8.2-3.7,10.9-7.1s11.6-8.1,11.6-8.1l-0.9,7.4c0,0,27.6-8.6,31.1-7.2s-3.3,5.5-3.3,5.5
		s6.5-2.3,6.8-1c0.3,1.4-2,5-3.4,6c0,0,1.8-0.5,1.9,1.3s-9,9.1-16.5,12c0,0,8.4-1.8,10.8,0c0,0-12.3,6.1-16.8,7.5
		s-30.8,4.4-30.8,4.4L159.8,276.8z"/>
	<line class="st16" x1="209.2" y1="267.2" x2="186.6" y2="274.7"/>
	<path class="st16" d="M212.6,272.2c0,0-15.3,6-23.6,8.3"/>
	<line class="st16" x1="198" y1="285.5" x2="190.5" y2="287.6"/>
	<path class="st17" d="M159.3,301.5c0,0-14.1,8.9-30.8,16.3"/>
	<path class="st17" d="M83.9,296c0,0,3.5-15.3,24-17.8s43-0.8,51.8-3.5"/>
	<path class="st17" d="M252.6,255.2c0,0-6.8,6.3-9.5,17"/>
	<polygon class="st15" points="159.8,276.8 161.2,297.3 165.9,296.8 	"/>
	<path class="st14" d="M289.6,204.2l14-18.7c0,0,5.5-6.1,13.1-9.8c9.4-4.4,21.6-12.8,21.6-12.8s4.1,2.6,0,6.5l-11.1,10.8l6.9,5.1
		c2.7,1.9,2.9,6,0.2,7.8c-0.1,0.1-0.3,0.2-0.5,0.3c0,0,1.5,4.5-3,6.6c0,0,0.1,3.3-3.1,4.6s-8.8-0.8-8.8-0.8s-1.2,6.7-11,8.6
		l-4.3,6.1L289.6,204.2z"/>
	<path class="st14" d="M313.8,183.4l20-1.9c0,0,1.9,5.5-3.3,6.8s-10.4,3.3-10.4,3.3s0.8,7.9-7,10L313.8,183.4z"/>
	<path class="st16" d="M317.3,183.1l16.5-1.5c0,0,1.9,5.5-3.3,6.8s-10.4,3.3-10.4,3.3s0.8,7.9-7,10"/>
	<path class="st16" d="M320.1,191.6c0,0,10.1,3.3,13.8,2"/>
	<path class="st16" d="M319,197.2c0,0,5.9,3.7,11.9,3"/>
	<path class="st16" d="M319,204.1c0,0-3.2-2.4-2.9-3.8"/>
	<polygon class="st15" points="289.6,204.2 307,214.3 303.7,218.7 	"/>
	<path class="st13" d="M172.8,159.6c0.1,1.1-0.5,2-1.2,2c-0.8,0.1-1.4-0.8-1.5-1.8c-0.1-1.1,0.5-2,1.2-2
		C172,157.7,172.7,158.6,172.8,159.6z"/>
	<path class="st13" d="M186.7,158.2c0.1,1.1-0.5,2-1.2,2c-0.8,0.1-1.4-0.8-1.5-1.8c-0.1-1.1,0.5-2,1.2-2
		C186,156.4,186.7,157.2,186.7,158.2z"/>
	<path class="st18" d="M165.5,154.1c0,0,2.7-3.5,7.1-1.8"/>
	<path class="st18" d="M181.2,151.4c0,0,1.8-2.3,4.8-2.3"/>
	<g>
		<path class="st19" d="M177.3,159.8c0,4-2.9,7.3-6.4,7.3c-3.6,0-6.4-3.3-6.4-7.3c0-4,2.9-7.3,6.4-7.3
			C174.5,152.5,177.3,155.7,177.3,159.8z"/>
		<path class="st19" d="M192.8,157.9c0,4-2.4,7.3-5.3,7.3c-2.9,0-5.3-3.3-5.3-7.3c0-4,2.4-7.3,5.3-7.3
			C190.5,150.6,192.8,153.9,192.8,157.9z"/>
		<line class="st19" x1="177.3" y1="158.8" x2="182.2" y2="157.9"/>
	</g>
	<path class="st16" d="M180.3,159.7c0,0,5.1,5.8,5.7,8.6s-4.6,2.4-4.6,2.4"/>
	<path class="st2" d="M174.5,173.1l7.4,1c0,0-0.2,3.3-4.3,2.8S174.5,173.1,174.5,173.1z"/>
	<circle class="st19" cx="142.6" cy="182.9" r="10.8"/>
	<polyline class="st20" points="205.3,239 204.5,244.4 223,244.4 223.7,239 	"/>
	<path class="st10" d="M151.2,68.1h-51c-3.1,0-5.6,2.5-5.6,5.6v18.8c0,3.1,2.5,5.6,5.6,5.6h33l10.5,11.8V98.1h7.6
		c3.1,0,5.6-2.5,5.6-5.6V73.7C156.8,70.6,154.3,68.1,151.2,68.1z"/>
	<circle class="st2" cx="112.4" cy="82.4" r="3"/>
	<path class="st2" d="M129.7,82.4c0,1.6-1.3,3-3,3c-1.6,0-3-1.3-3-3c0-1.6,1.3-3,3-3C128.3,79.4,129.7,80.7,129.7,82.4z"/>
	<path class="st2" d="M142.6,82.4c0,1.6-1.3,3-3,3s-3-1.3-3-3c0-1.6,1.3-3,3-3S142.6,80.7,142.6,82.4z"/>
	<g>
		<g>
			<path class="st10" d="M326.7,310.1l-34.8,13.5c0,0-25.2,9.2-28.7,30.8c-3.5,21.7-9.7,55.8-9.7,55.8l-46.3,8.8v18.7h209.2
				l-1.7-46.2l25.5-1.7c-5.6-35.5-11.8-63.7-49.5-72.7l-34.1-8.7L326.7,310.1z"/>
			<path class="st12" d="M319.2,313.2c0,0-1.6,24.8,22.4,23.6s22.6-26.5,22.6-26.5"/>
		</g>
		<g>
			<path class="st14" d="M293,395l-36.4-1.7c-1.7,9.8-3,17-3,17l-46.3,8.8v18.7h85.6L293,395z"/>
			<polygon class="st15" points="256.5,393.3 293,395 293,403.8 			"/>
		</g>
		<g>
			<path class="st13" d="M370.2,251.2c-1.6-8.5-9.9-9-9.9-9c1-6.5-5.4-11.4-15.3-10.4s-12.4-4.4-23.6-5.8s-16.3,9.5-13.6,18.9
				s13.6,10.3,13.6,10.3l0.9,31.1l27.4,0.8c7.1,0,12.9-5.4,12.9-12.1c0-1-0.2-2-0.4-3C367.7,266.5,371.4,257.1,370.2,251.2z"/>
			<path class="st14" d="M357.7,263.2c-3.3,0-6.1,2-7.3,4.9c-2.4-2.2-4.6-6-4.7-12.5c0,0-9.3,4-12.8,0.6c-3.6-3.6-3.4-8.3-3.4-8.3
				s-3.3,6.9-11.2,4.7l-3.2,28.9c0,0-2.6,12.9,12.6,15.7l-1.5,16.2c0,0-1,14.7,11.8,15.3c18.7,0.8,18.7-15.3,18.7-15.3l-2.7-35.4
				c1.1,0.5,2.3,0.9,3.6,0.9c4.3,0,7.9-3.5,7.9-7.9C365.6,266.7,362.1,263.2,357.7,263.2z"/>
			<path class="st15" d="M345.7,255.6c0,0-9.3,4-12.8,0.6c-3.6-3.6-3.4-8.3-3.4-8.3s-3.3,6.9-11.2,4.7c0,0,4.9,3.7,10.6,2.2
				c0,0,3.8,7.8,11.3,6.8c0,0,4.3,7.4,10.1,6.4C348.1,265.9,345.9,262.1,345.7,255.6z"/>
			<path class="st15" d="M327.9,297.3c0,0,13.5,2.1,18.6-10.2c0,0-1.1,16-19.3,17.4L327.9,297.3z"/>
			<line class="st16" x1="353.4" y1="272.5" x2="361.5" y2="268.2"/>
			<path class="st16" d="M325.7,264.6l-5.3,8.6c-0.7,1.1-0.2,2.5,1,2.9l4.3,1.6"/>
			<path class="st16" d="M322.9,281.6c0,0,6.1,1.9,9.5-1.8"/>
			<ellipse class="st13" cx="320.5" cy="263.2" rx="1.4" ry="1.9"/>
			<ellipse class="st13" cx="334.1" cy="265.3" rx="1.4" ry="1.9"/>
			<path class="st18" d="M332,259.2c0,0,4.3-1.3,6.8,2.6"/>
			<path class="st18" d="M317.4,258.1c0,0,2.5-1,5.5,0"/>
		</g>
		<line class="st12" x1="292.6" y1="436.7" x2="293.4" y2="370"/>
		<line class="st12" x1="257.9" y1="385.7" x2="293.2" y2="387.5"/>
		<g>
			<path class="st14" d="M341.9,417.6l-23.7-11.8c0,0-3.7-2.5-8.7,1.3c-5,3.8-19.7,17.7-26.3,18.3c0,0-2.5,5.5,5.3,5.5
				c0,0,3.2,3.7,9.3,1c0,0,4,3,9.7-0.5c0,0,3.7,2.5,9.7,1l8-2.5c0,0,5.8,7,16.7,7.8H419c0,0,28.7-2,25-26c-3.1-20.1-3.9-22-3.9-22
				l-43.3,3l1.4,13L341.9,417.6z"/>
			<polygon class="st15" points="396.8,392.7 440.2,389.8 441.6,396.5 			"/>
			<path class="st16" d="M398.3,405.7c0,0,9.3-1.5,16.4,3.9"/>
			<line class="st16" x1="341.9" y1="417.6" x2="348.1" y2="420.5"/>
			<path class="st16" d="M325.2,429.9l6.3-2.5c0,0,5.5,7.3,12.6,5.9"/>
			<line class="st16" x1="307.5" y1="431.4" x2="322.7" y2="422.1"/>
			<line class="st16" x1="297.9" y1="431.9" x2="315.1" y2="418.1"/>
			<line class="st16" x1="288.5" y1="430.9" x2="308.4" y2="415.6"/>
		</g>
		<line class="st12" x1="396.8" y1="392.7" x2="392.9" y2="366"/>
		<line class="st12" x1="395.8" y1="385.7" x2="438.8" y2="381.4"/>
		<g>
			<rect x="231.4" y="429.8" class="st4" width="93.3" height="7.9"/>
			<polygon class="st1" points="276.2,437.7 176.7,437.7 156.7,359.4 256.2,359.4 			"/>
			<polygon class="st4" points="256.2,359.4 249.2,359.4 269.2,437.7 276.2,437.7 			"/>
			
				<ellipse transform="matrix(0.9702 -0.2423 0.2423 0.9702 -90.0546 62.2544)" class="st2" cx="208.1" cy="397.3" rx="6" ry="7.7"/>
		</g>
	</g>
	<g>
		<path class="st13" d="M529.9,290.7c0,0-27.3,5.6-44.8-13.4s9.3-46.7,9.3-46.7s-14.3-13.3-7.5-26c0,0,6.7-9.3,19-3.3
			c0,0,14.4-19.5,38.3-8.5c24,11,23.7,42,23,47.7C567.1,240.5,596.7,286,529.9,290.7z"/>
		<g>
			<path class="st14" d="M504.6,326.6l-4.5,13.3l-37.5-38.8c0,0,1.8-6.7-1.6-13.7c-3.3-7-1.2-15-1.2-15s-3.5-1.7-5.8,1.5l-3.6,11.2
				l-30.9-8.1c-0.6-0.2-1.2-0.3-1.8-0.3c-2.1-0.1-6.5,0.1-7.3,3.4c0,0-5.7-1.9-8.9,3.1l3.2,1.4c0,0-5,0.5-6.2,3.8l3.9,3
				c0,0,2.7,4.9,5.1,6.5c7.9,5.3,34.2,10.7,37.9,14.9l34,57.8c4.9,8.3,11.4,15.7,20.9,17.1c6.4,0.9,16-0.8,20.8-7.4
				c13.3-18.2,20.3-34,20.3-34L504.6,326.6z"/>
			<line class="st16" x1="500.1" y1="339.8" x2="511.5" y2="351.9"/>
			<path class="st15" d="M531.8,341l-5.4,32.1c0,0,11.7-19.5,15.3-26.8L531.8,341z"/>
			<line class="st16" x1="410.5" y1="280.1" x2="431.2" y2="286.7"/>
			<line class="st16" x1="404.9" y1="284.6" x2="427.9" y2="291.6"/>
			<line class="st16" x1="401.7" y1="290.7" x2="424.7" y2="297.1"/>
			<path class="st16" d="M436.7,297.1c0,0,11.5-6.3,16.1,5"/>
		</g>
		<g>
			<path class="st13" d="M644.5,317.6c0,0,22.8,2.7,31.2,28.8c8.3,26.1-19,91.4-19,91.4H547l40.7-73.5L644.5,317.6z"/>
			<polyline class="st21" points="606,373.1 612.2,377.6 599.2,437.7 			"/>
			<path class="st21" d="M632.8,327.2l6.9,6.8c7.4,7.3,17.8,10.8,28.1,9.5l0.2,0"/>
			<path class="st21" d="M646.7,437.7c0,0,24.7-76.1,15.7-94"/>
		</g>
		<g>
			<path class="st4" d="M612.2,257.6c-4.7-5.9-11.3-9.1-17-10.8c-5.4-1.6-11-2.1-16.6-1.7l-17.2,1.4l-22.8,13.9l-8.4,4.5
				c-6.4,3.4-11.4,9.1-13.7,16c-0.7,2-1.3,4.3-1.9,6.9c-3,14.3-10,38.8-10,38.8l37,19.8l8.7-17.8c3.6,0.7,6.6,0.4,6.6,0.4
				c9.3,5.5,30.8,35.3,30.8,35.3l56.8-46.7C644.5,317.6,622.2,270.2,612.2,257.6z"/>
			<path class="st22" d="M550.3,328.5c0,0-9.9-0.1-11.6-8.6c-2-9.5-5.3-17.2-5.3-17.2s2.4,31.1-1.6,38.3l9.9,5.3L550.3,328.5z"/>
		</g>
		<g>
			<path class="st14" d="M561.4,246.6l-18.3-9.1c2.8-1.1,4.8-3.9,4.8-7.2c0-4.2-3.2-7.7-7.2-7.7c-4,0-7.2,3.4-7.2,7.7
				c0,0.2,0,0.4,0,0.6c-0.1-0.1-0.2-0.2-0.3-0.3c-8.5-1.1-25.1-21.4-25.1-21.4c-1.6,1.9-2.9,4.3-3.3,7.6l0.3,8.5l-6.3,11h5.8
				c0,0-0.1,16.7,7.9,20.7c7,3.5,13.7,1.1,17.9-2l8.1,5.6c0,0,2.5,20.3,15.5,18.6C570,277,561.4,246.6,561.4,246.6z"/>
			<path class="st15" d="M530.7,229.8c-8.9-3.9-22.6-20.6-22.6-20.6c-1.4,1.7-2.6,3.8-3.1,6.6C511.8,220.2,522.3,226.8,530.7,229.8
				L530.7,229.8z"/>
			<path class="st15" d="M530.5,254.8c0,0,5.1-5.5,7.1-9.9c0,0,1.5,9.6-0.5,14.5L530.5,254.8z"/>
			<line class="st16" x1="538.1" y1="233.4" x2="542.9" y2="226.2"/>
			<path class="st2" d="M511.4,241.2l8.2-3.3c0,0,1.3,4.4-3,5.8C513,244.8,511.4,241.2,511.4,241.2z"/>
			<ellipse class="st13" cx="510.4" cy="226.1" rx="1.4" ry="1.9"/>
			<path class="st18" d="M508.1,218.9c0,0,4.3-1.3,6.8,2.6"/>
		</g>
		<g>
			<path class="st14" d="M579.9,321.6l0.5,14l-42.8,53.8l-29.3,11.8c-2.2,0.9-4.1,2.5-5.3,4.5l-14.1,23.7c0,0,4.6,2.5,9-1.3
				l-1.8,3.6c0,0,6.6,1.6,9.9-1.9l-1.5,2.9c0,0,3.3,1.5,8.3,0.4c0,0,6.1,0,8.5-2.4c3.9-3.9,9.8-12.5,9.8-12.5s9.6,0.9,13.8-5.1
				l4.1-6l53.9-35.4c8.2-5.4,13.5-14.4,14.1-24.2l1.7-25.9H579.9z"/>
			<line class="st16" x1="497.9" y1="428.1" x2="508.4" y2="409.9"/>
			<line class="st16" x1="506" y1="429.8" x2="515.4" y2="412.2"/>
			<line class="st16" x1="512.7" y1="433.1" x2="521.9" y2="415.6"/>
			<polygon class="st15" points="579.9,321.6 618.6,321.6 618.1,328.7 			"/>
		</g>
		<g>
			<rect x="444.4" y="429.8" class="st4" width="93.3" height="7.9"/>
			<polygon class="st1" points="489.2,437.7 389.7,437.7 369.7,359.4 469.2,359.4 			"/>
			<polygon class="st4" points="469.2,359.4 462.2,359.4 482.2,437.7 489.2,437.7 			"/>
			
				<ellipse transform="matrix(0.9702 -0.2423 0.2423 0.9702 -83.7092 113.8575)" class="st2" cx="421.1" cy="397.3" rx="6" ry="7.7"/>
		</g>
		<line class="st21" x1="579.9" y1="321.6" x2="577.6" y2="275.1"/>
		<line class="st21" x1="618.6" y1="321.6" x2="618.6" y2="293.9"/>
	</g>
	<line class="st23" x1="63.4" y1="437.7" x2="680" y2="437.7"/>
	<circle class="st5" cx="307" cy="131.7" r="35"/>
	<text transform="matrix(1 0 0 1 283.4798 141.3494)" class="st4 st24 st25">Rp.</text>
</g>
</svg>
