<?xml version="1.0" encoding="utf-8"?>
<!-- Generator: Adobe Illustrator 22.1.0, SVG Export Plug-In . SVG Version: 6.00 Build 0)  -->
<svg version="1.1" id="Layer_1" xmlns="http://www.w3.org/2000/svg" xmlns:xlink="http://www.w3.org/1999/xlink" x="0px" y="0px"
	 viewBox="0 0 84.7 84.7" style="enable-background:new 0 0 84.7 84.7;" xml:space="preserve">
<style type="text/css">
	.st0{fill:#F22613;}
	.st1{fill:#FFFFFF;}
</style>
<title>xc</title>
<circle class="st0" cx="42.3" cy="42.3" r="42.3"/>
<path class="st1" d="M53.5,42l8.2-8.2c2.8-2.8,2.8-7.3,0-10.1c0,0,0,0,0,0l0,0c-2.8-2.8-7.3-2.8-10.1,0l-8.2,8.2l-8.2-8.2
	c-2.8-2.8-7.3-2.8-10.1,0s-2.8,7.3,0,10.1l8.2,8.2L25,50.2c-2.8,2.8-2.7,7.4,0.1,10.1c2.8,2.7,7.2,2.7,10,0l8.2-8.2l8.2,8.2
	c2.8,2.8,7.3,2.8,10.1,0c0,0,0,0,0,0l0,0c2.8-2.8,2.8-7.3,0-10.1c0,0,0,0,0,0L53.5,42z"/>
</svg>
